<svg width="51" height="14" viewBox="0 0 51 14" fill="none" xmlns="http://www.w3.org/2000/svg">
<path fill-rule="evenodd" clip-rule="evenodd" d="M49.8738 10.416C49.2523 10.7786 49.2318 10.8384 49.5142 11.4653C50.0618 12.6818 49.9343 13.0809 48.903 13.3752C47.7234 13.7116 45.7899 13.3431 44.6701 12.5682C44.246 12.2748 43.2708 11.6344 42.5027 11.1453L41.1062 10.2558C16.5678 10.262 29.6008 10.2465 0.5 10.2465L0.5 9.69254L0.5 9.13855L19.701 9.13855L27.3437 9.13855L28.3171 7.2683C29.8602 4.30337 32.4217 2.02516 35.5127 0.868438C36.9716 0.32243 37.2786 0.368524 37.0901 1.10577C36.754 2.42004 35.2352 4.95619 34.0158 6.239C33.0803 7.22316 32.2308 8.31409 30.7297 9.13235L38.4552 9.13545L41.0654 9.13855L42.2495 8.42967C42.9009 8.03989 43.7747 7.44424 44.1911 7.10609C45.8741 5.74019 49.6117 5.43372 49.7925 6.64695C49.8335 6.92195 49.7022 7.46153 49.5007 7.84622C49.2991 8.2309 49.1609 8.55975 49.1934 8.57681C50.6996 9.36812 50.8718 9.83348 49.8738 10.416ZM44.5854 9.23649C45.3819 8.73968 47.0207 8.58124 48.0425 8.90233C49.7423 9.43659 49.6215 10.0061 47.7052 10.494C46.8552 10.7105 46.4258 10.7072 45.5657 10.4781C44.1024 10.0879 43.8112 9.71935 44.5854 9.23649ZM47.5683 11.366C48.3059 11.2082 48.4835 11.2433 48.6751 11.5841C49.1595 12.4456 48.9681 12.6843 47.7978 12.6792C46.5361 12.6736 45.0472 12.0975 44.3647 11.351L43.8992 10.8417L44.4811 11.0024C46.1686 11.468 46.7642 11.538 47.5683 11.366ZM44.3647 8.03413C45.0472 7.28758 46.5361 6.71143 47.7978 6.70589C48.7002 6.7019 48.902 6.77237 48.8964 7.08881C48.8806 7.94815 48.4956 8.21739 47.566 8.01862C46.7644 7.84711 46.1672 7.91757 44.4811 8.38269L43.8992 8.54335L44.3647 8.03413ZM31.5223 4.1538C32.6361 3.11031 35.1473 1.60436 35.7734 1.60436C36.1581 1.60436 36.0957 1.79847 35.1922 3.41079C34.7378 4.2216 33.902 5.34641 33.3343 5.91015C32.3198 6.9184 30.353 8.25218 29.8812 8.25218C29.749 8.25218 30.5697 7.36358 31.7053 6.27755C33.2687 4.78201 33.7312 4.2072 33.6111 3.90871C33.4803 3.58452 33.0632 3.88367 31.2507 5.60213C30.0397 6.75021 29.0491 7.60955 29.0491 7.51161C29.0491 7.05069 30.4268 5.18044 31.5223 4.1538Z" fill="#383838"/>
</svg>
