<svg width="51" height="14" viewBox="0 0 51 14" fill="none" xmlns="http://www.w3.org/2000/svg">
<path fill-rule="evenodd" clip-rule="evenodd" d="M1.12622 10.416C1.74767 10.7786 1.76816 10.8384 1.48583 11.4653C0.938158 12.6818 1.0657 13.0809 2.09704 13.3752C3.27664 13.7116 5.21013 13.3431 6.32991 12.5682C6.75399 12.2748 7.72923 11.6344 8.49731 11.1453L9.89384 10.2558C34.4322 10.262 21.3992 10.2465 50.5 10.2465L50.5 9.69254L50.5 9.13855L31.299 9.13855L23.6563 9.13855L22.6829 7.2683C21.1398 4.30337 18.5783 2.02516 15.4873 0.868438C14.0284 0.32243 13.7214 0.368524 13.9099 1.10577C14.246 2.42004 15.7648 4.95619 16.9842 6.239C17.9197 7.22316 18.7692 8.31409 20.2703 9.13235L12.5448 9.13545L9.93457 9.13855L8.75055 8.42967C8.09907 8.03989 7.22531 7.44424 6.80892 7.10609C5.12587 5.74019 1.3883 5.43372 1.20745 6.64695C1.16649 6.92195 1.29776 7.46153 1.49933 7.84622C1.70089 8.2309 1.83915 8.55975 1.80656 8.57681C0.300409 9.36812 0.12817 9.83348 1.12622 10.416ZM6.41463 9.23649C5.61815 8.73968 3.97932 8.58124 2.95753 8.90233C1.25773 9.43659 1.37853 10.0061 3.29479 10.494C4.14481 10.7105 4.57424 10.7072 5.43427 10.4781C6.89759 10.0879 7.18877 9.71935 6.41463 9.23649ZM3.43165 11.366C2.69405 11.2082 2.51646 11.2433 2.32491 11.5841C1.84054 12.4456 2.03187 12.6843 3.20216 12.6792C4.46392 12.6736 5.95285 12.0975 6.63528 11.351L7.10079 10.8417L6.5189 11.0024C4.83144 11.468 4.23582 11.538 3.43165 11.366ZM6.63528 8.03413C5.95285 7.28758 4.46392 6.71143 3.20216 6.70589C2.29977 6.7019 2.09797 6.77237 2.10356 7.08881C2.11938 7.94815 2.50436 8.21739 3.43398 8.01862C4.23559 7.84711 4.83283 7.91757 6.5189 8.38269L7.10079 8.54335L6.63528 8.03413ZM19.4777 4.1538C18.3639 3.11031 15.8527 1.60436 15.2266 1.60436C14.8419 1.60436 14.9043 1.79847 15.8078 3.41079C16.2622 4.2216 17.098 5.34641 17.6657 5.91015C18.6802 6.9184 20.647 8.25218 21.1188 8.25218C21.251 8.25218 20.4303 7.36358 19.2947 6.27755C17.7313 4.78201 17.2688 4.2072 17.3889 3.90871C17.5197 3.58452 17.9368 3.88367 19.7493 5.60213C20.9603 6.75021 21.9509 7.60955 21.9509 7.51161C21.9509 7.05069 20.5732 5.18044 19.4777 4.1538Z" fill="#383838"/>
</svg>
